<svg xmlns="http://www.w3.org/2000/svg" xmlns:xlink="http://www.w3.org/1999/xlink" width="36" height="36" xmlns:v="https://vecta.io/nano"><g fill="#55565b"><path d="M9.8 14.9c2.2 5 6.3 9 11.3 11.1.8-.6 1.3-1.6 1.9-2.5.4-.4 1.2-1.2 2.1-.8 2.1 1 3.1 1.3 5.4 1.6.2 0 .9.2 1.2.3.6.1 1.2.5 1.2 1.7v4.6c0 .8-.7 1.9-1.5 2-.7.1-1.3.1-1.7.1C14.9 33 3 20.8 3 6.3c0-.5 0-1 .1-1.8 0-.8 1.1-1.5 2-1.5h4.7c1.2 0 1.7.7 1.7 1.2 0 .4.3 1 .3 1.2.3 2.3.7 3.3 1.7 5.4.4.8-.4 1.6-.8 2.1-1 .6-2.3 1.1-2.9 2zm14.9-5.8a2.22 2.22 0 0 0-2.2 2.2 2.22 2.22 0 0 0 2.2 2.2 2.22 2.22 0 0 0 2.2-2.2 2.22 2.22 0 0 0-2.2-2.2zm0-6.1a2.22 2.22 0 0 0-2.2 2.2 2.22 2.22 0 0 0 2.2 2.2 2.22 2.22 0 0 0 2.2-2.2A2.22 2.22 0 0 0 24.7 3z"/><use xlink:href="#B"/><path d="M18.6 9.1a2.22 2.22 0 0 0-2.2 2.2 2.22 2.22 0 0 0 2.2 2.2 2.22 2.22 0 0 0 2.2-2.2 2.22 2.22 0 0 0-2.2-2.2zm0-6.1a2.22 2.22 0 0 0-2.2 2.2 2.22 2.22 0 0 0 2.2 2.2 2.22 2.22 0 0 0 2.2-2.2A2.22 2.22 0 0 0 18.6 3z"/><use xlink:href="#B" x="-6.1"/><path d="M30.8 9.1a2.22 2.22 0 0 0-2.2 2.2 2.22 2.22 0 0 0 2.2 2.2 2.22 2.22 0 0 0 2.2-2.2 2.22 2.22 0 0 0-2.2-2.2zm0-1.7A2.22 2.22 0 0 0 33 5.2 2.22 2.22 0 0 0 30.8 3a2.22 2.22 0 0 0-2.2 2.2 2.22 2.22 0 0 0 2.2 2.2z"/><use xlink:href="#B" x="6.1"/></g><defs ><path id="B" d="M24.7 15.2a2.22 2.22 0 0 0-2.2 2.2 2.22 2.22 0 0 0 2.2 2.2 2.22 2.22 0 0 0 2.2-2.2 2.22 2.22 0 0 0-2.2-2.2z"/></defs></svg>